{"title":"Anti-Clock (Jane Arden &amp; Jack Bond, 1979)","uid":6862230,"size":1988656910,"categoryP":"video","categoryS":"movies","magnet":"?xt=urn:btih:c174cbbfbf538ae53c9fc62c2e0d46d383c078f2&amp;dn=Anti-Clock+%28Jane+Arden+%26amp%3B+Jack+Bond%2C+1979%29&amp;tr=udp%3A%2F%2Ftracker.openbittorrent.com%3A80&amp;tr=udp%3A%2F%2Fopen.demonii.com%3A1337&amp;tr=udp%3A%2F%2Ftracker.coppersurfer.tk%3A6969&amp;tr=udp%3A%2F%2Fexodus.desync.com%3A6969","seeders":0,"leechers":1,"uploader":"tonioferah","files":3,"time":1322941251,"description":"Anti-Clock is a 1979 film written and directed by Jane Arden and co-directed Jack Bond. The film, which stars Arden's son Sebastian Saville, was shot on film and video in colour and black and white sequences. It opened the 1979 London Film Festival, but was never picked up for British distribution: its only other public British screening was at the National Film Theatre in 1983 as a tribute to Jane Arden, who committed suicide at the end of the previous year. However, it had a modest theatrical release in the US, where it received considerable critical acclaim.\n\n\n'A complex and fascinating experimental exploration of time and identity. 'Anti-Clock' is a film of authentic, startling originality. Brilliantly mixing cinema and video techniques, Arden and Bond have created a movie that captures the anxiety and sense of danger that has infiltrated the consciousness of so many people in western society. Filled with high tension and high intelligence, Anti-Clock is mysterious, disturbing, fascinating and exciting'. (Jack Kroll, Newsweek).\n\n_____________________________________\n\n\nLanguage: English\nSubtitles: English (VobSubs)\n\n_____________________________________\n\nRip Specs\n\nSource:Blu-Ray\n\nGeneral\nFormat                           : Matroska\nFile size                        : 1.85 GiB\nDuration                         : 1h 35mn\nOverall bit rate                 : 2 759 Kbps\nMovie name                       : Anti-Clock\nEncoded date                     : UTC 2011-12-02 23:04:57\nWriting application              : mkvmerge v4.4.0 ('Die Wiederkehr') built on Oct 31 2010 21:52:48\nWriting library                  : libebml v1.0.0 + libmatroska v1.0.0\n\nVideo\nID                               : 1\nFormat                           : AVC\nFormat/Info                      : Advanced Video Codec\nFormat profile                   : &lt;a class=&quot;__cf_email__&quot; href=&quot;/cdn-cgi/l/email-protection&quot; data-cfemail=&quot;de96b7b9b69e92eaf0ee&quot;&gt;[email&amp;#160;protected]&lt;/a&gt;&lt;script cf-hash='f9e31' type=&quot;text/javascript&quot;&gt;\n/* &lt;![CDATA[ */!function(){try{var t=&quot;currentScript&quot;in document?document.currentScript:function(){for(var t=document.getElementsByTagName(&quot;script&quot;),e=t.length;e--;)if(t[e].getAttribute(&quot;cf-hash&quot;))return t[e]}();if(t&amp;&amp;t.previousSibling){var e,r,n,i,c=t.previousSibling,a=c.getAttribute(&quot;data-cfemail&quot;);if(a){for(e=&quot;&quot;,r=parseInt(a.substr(0,2),16),n=2;a.length-n;n+=2)i=parseInt(a.substr(n,2),16)^r,e+=String.fromCharCode(i);e=document.createTextNode(e),c.parentNode.replaceChild(e,c)}}}catch(u){}}();/* ]]&gt; */&lt;/script&gt;\nFormat settings, CABAC           : Yes\nFormat settings, ReFrames        : 3 frames\nCodec ID                         : V_MPEG4/ISO/AVC\nDuration                         : 1h 35mn\nBit rate mode                    : Variable\nBit rate                         : 2 119 Kbps\nMaximum bit rate                 : 25.0 Mbps\nWidth                            : 960 pixels\nHeight                           : 720 pixels\nDisplay aspect ratio             : 4:3\nFrame rate                       : 24.000 fps\nColor space                      : YUV\nChroma subsampling               : 4:2:0\nBit depth                        : 8 bits\nScan type                        : Progressive\nBits/(Pixel*Frame)               : 0.128\nStream size                      : 1.38 GiB (75%)\n\n\nAudio\nID                               : 2\nFormat                           : AC-3\nFormat/Info                      : Audio Coding 3\nMode extension                   : CM (complete main)\nCodec ID                         : A_AC3\nDuration                         : 1h 35mn\nBit rate mode                    : Constant\nBit rate                         : 640 Kbps\nChannel(s)                       : 2 channels\nChannel positions                : Front: L R\nSampling rate                    : 48.0 KHz\nBit depth                        : 16 bits\nCompression mode                 : Lossy\nStream size                      : 439 MiB (23%)\nLanguage                         : English","torrent":{"xt":"urn:btih:c174cbbfbf538ae53c9fc62c2e0d46d383c078f2","amp;dn":"Anti-Clock+%28Jane+Arden+%26amp%3B+Jack+Bond%2C+1979%29","amp;tr":["udp%3A%2F%2Ftracker.openbittorrent.com%3A80","udp%3A%2F%2Fopen.demonii.com%3A1337","udp%3A%2F%2Ftracker.coppersurfer.tk%3A6969","udp%3A%2F%2Fexodus.desync.com%3A6969"],"infoHash":"c174cbbfbf538ae53c9fc62c2e0d46d383c078f2","infoHashBuffer":{"type":"Buffer","data":[193,116,203,191,191,83,138,229,60,159,198,44,46,13,70,211,131,192,120,242]},"announce":[],"urlList":[]}}